<svg version="1.1" viewBox="0.0 0.0 960.0 540.0" fill="none" stroke="none" stroke-linecap="square" stroke-miterlimit="10" xmlns:xlink="http://www.w3.org/1999/xlink" xmlns="http://www.w3.org/2000/svg"><clipPath id="ga3eeb8a9dd_0_20.0"><path d="m0 0l960.0 0l0 540.0l-960.0 0l0 -540.0z" clip-rule="nonzero"/></clipPath><g clip-path="url(#ga3eeb8a9dd_0_20.0)"><path fill="#000000" fill-opacity="0.0" d="m0 0l960.0 0l0 540.0l-960.0 0z" fill-rule="evenodd"/><path fill="#3caea3" d="m523.48816 29.835798l0 0c3.6132812 -6.374443 11.709045 -8.611301 18.082458 -4.9961643l383.0478 217.2741c3.060608 1.7360535 5.3065796 4.6170197 6.2438354 8.009125c0.9371948 3.3921204 0.48895264 7.017502 -1.2462158 10.078598l-26.168762 46.166412c-3.6132812 6.3744507 -11.709045 8.611328 -18.082397 4.9961853l-383.04782 -217.27411c-6.3733826 -3.6151352 -8.610901 -11.713295 -4.99765 -18.08773z" fill-rule="evenodd"/><path fill="#3caea3" d="m523.48816 510.16415l0 0c3.6132812 6.37442 11.709045 8.611298 18.082458 4.9961853l383.0478 -217.27411c3.060608 -1.7360535 5.3065796 -4.617035 6.2438354 -8.009125c0.9371948 -3.3921204 0.48895264 -7.017517 -1.2462158 -10.078613l-26.168762 -46.166412c-3.6132812 -6.3744507 -11.709045 -8.611313 -18.082397 -4.99617l-383.04782 217.2741c-6.3733826 3.6151428 -8.610901 11.713287 -4.99765 18.087738z" fill-rule="evenodd"/><path fill="#3caea3" d="m896.43945 269.87762l0 0c0 -15.919617 8.892151 -28.825012 19.861145 -28.825012l0 0c5.267517 0 10.319275 3.036911 14.043945 8.442657c3.7246704 5.405731 5.8171997 12.737488 5.8171997 20.382355l0 0c0 15.919617 -8.892151 28.825012 -19.861145 28.825012l0 0c-10.968994 0 -19.861145 -12.9053955 -19.861145 -28.825012z" fill-rule="evenodd"/><path fill="#ed553b" d="m23.839731 296.5748l0 0c0 7.3236084 5.936949 13.259064 13.260546 13.257233l440.4205 -0.11053467c3.5169067 -8.8500977E-4 6.8897705 -1.3988037 9.376617 -3.886261c2.486847 -2.4874573 3.8839111 -5.8606873 3.8839111 -9.3776245l0 -53.04059c0 -7.323593 -5.9369507 -13.259048 -13.260529 -13.257217l-440.4205 0.11051941c-7.323597 0.0018463135 -13.260546 5.940277 -13.260546 13.2638855z" fill-rule="evenodd"/><path fill="#f6d55c" d="m23.839731 428.04492l0 0c0 7.3236084 5.936949 13.259064 13.260546 13.257233l440.4205 -0.11053467c3.5169067 -8.8500977E-4 6.8897705 -1.3988037 9.376617 -3.886261c2.486847 -2.4874573 3.8839111 -5.8606873 3.8839111 -9.377594l0 -53.04062c0 -7.323578 -5.9369507 -13.259033 -13.260529 -13.257202l-440.4205 0.11050415c-7.323597 0.0018615723 -13.260546 5.940277 -13.260546 13.2638855z" fill-rule="evenodd"/><path fill="#20639b" d="m23.839731 165.10468l0 0c0 7.323593 5.936949 13.259048 13.260546 13.257217l440.4205 -0.11051941c3.5169067 -8.8500977E-4 6.8897705 -1.398819 9.376617 -3.8862762c2.486847 -2.4874573 3.8839111 -5.8606873 3.8839111 -9.377594l0 -53.040604c0 -7.323601 -5.9369507 -13.259056 -13.260529 -13.257217l-440.4205 0.11051941c-7.323597 0.0018386841 -13.260546 5.940277 -13.260546 13.26387z" fill-rule="evenodd"/></g></svg>